<svg xmlns="http://www.w3.org/2000/svg" viewBox="0 0 215.06 161.32"><defs><style>.cls-1{fill:#fb0;}.cls-2{fill:#aa5dfc;}.cls-3{fill:none;stroke:#8803d2;stroke-miterlimit:10;stroke-width:10.8px;}.cls-4{fill:#8fcb4e;}</style></defs><title>资源 1mdpi</title><g id="图层_2" data-name="图层 2"><g id="图层_1-2" data-name="图层 1"><g id="图层_2_复制" data-name="图层 2_复制"><path class="cls-1" d="M58.18,77.83C54.4,79,50.62,80.17,46.91,81.5S39.56,84.28,36,85.9a103.94,103.94,0,0,0-10.33,5.36c-.83.5-1.62,1-2.45,1.51s-1.58,1-2.38,1.62a46.82,46.82,0,0,0-4.42,3.53,40,40,0,0,0-3.89,3.92,25.09,25.09,0,0,0-3,4.36,17.25,17.25,0,0,0-1.76,4.64,13,13,0,0,0-.14,4.72A15.26,15.26,0,0,0,9,120.06a20.23,20.23,0,0,0,2.77,4.14,38.89,38.89,0,0,0,8.1,7,75.59,75.59,0,0,0,9.79,5.36,104.56,104.56,0,0,0,10.58,4.14,172.85,172.85,0,0,0,22.25,5.73c7.56,1.4,15.23,2.44,22.93,3.09s15.45,1,23.19.94,15.48-.36,23.15-1.12A222.4,222.4,0,0,0,154.69,146a158.38,158.38,0,0,0,22.14-6,103.82,103.82,0,0,0,10.48-4.32,63.19,63.19,0,0,0,9.57-5.58,33.76,33.76,0,0,0,7.64-7.2,15.76,15.76,0,0,0,3.31-8.82,14.06,14.06,0,0,0-.69-4.68,20.34,20.34,0,0,0-2.19-4.57,35.13,35.13,0,0,0-7.42-8A53,53,0,0,0,193,93.49c-.79-.5-1.58-1-2.41-1.55l-1.23-.75-1.26-.72a95.69,95.69,0,0,0-10.44-5.19c-3.6-1.54-7.23-3-11-4.24-1.87-.65-3.74-1.26-5.61-1.88s-3.78-1.15-5.69-1.69a142.08,142.08,0,0,1,23.33,5A102.27,102.27,0,0,1,190,86.72a68.32,68.32,0,0,1,10.73,5.94,42.77,42.77,0,0,1,4.93,3.89A34.24,34.24,0,0,1,210,101.3a25.06,25.06,0,0,1,3.35,5.87,20.85,20.85,0,0,1,1.51,6.91,19.71,19.71,0,0,1-.18,3.6,14.2,14.2,0,0,1-.32,1.77l-.22.86a7.11,7.11,0,0,1-.25.87,21.36,21.36,0,0,1-1.29,3.27,26.32,26.32,0,0,1-1.7,3,34.48,34.48,0,0,1-4.17,5.22,46.26,46.26,0,0,1-4.83,4.36,87.18,87.18,0,0,1-21.81,12.06,159.44,159.44,0,0,1-23.4,7.09c-4,.9-8,1.62-12,2.27s-8,1.18-12,1.58c-8,.83-16.09,1.22-24.19,1.3S92.41,161,84.35,160.2c-4-.4-8-.9-12-1.51s-8-1.3-11.95-2.16a157.48,157.48,0,0,1-23.43-6.81,92,92,0,0,1-22-11.52,44.2,44.2,0,0,1-9.32-9,30.63,30.63,0,0,1-3.46-5.91A22.59,22.59,0,0,1,1,119.92c-.07-.29-.14-.58-.18-.87s-.1-.57-.18-.86c-.07-.58-.18-1.19-.21-1.8a20.47,20.47,0,0,1,.75-7.06,22.38,22.38,0,0,1,2.88-6.19,34.22,34.22,0,0,1,4.14-5.08A41.42,41.42,0,0,1,13,93.92,77.83,77.83,0,0,1,34.85,83.2,132.6,132.6,0,0,1,58.18,77.83Z"/><path id="svg_1" data-name="svg 1" class="cls-2" d="M106.27,104.08V96.44a22.61,22.61,0,1,0,0-45.21V43.6a30,30,0,0,1,30.24,30.24,30.42,30.42,0,0,1-30.24,30.24Z"/><circle class="cls-3" cx="107.24" cy="73.8" r="42.55"/><path class="cls-4" d="M59.76,53.1c0-3,8.71-5.22-48.2-28.58C56.81,75.1,59.76,53.1,59.76,53.1Z"/><path class="cls-4" d="M62.24,47.16c2-2.41,10.62.07-19.65-47.16,2.23,63.58,19.65,47.16,19.65,47.16Z"/><path class="cls-4" d="M55.12,55.51c-2.85-1.69,0-9.07-55.12,17.25C74.52,70.2,55.12,55.51,55.12,55.51Z"/><path class="cls-4" d="M156.46,53.35c2.52.33,3.63,7,29.37-32.07-48,27.36-29.37,32.07-29.37,32.07Z"/><path class="cls-4" d="M158.26,61.42c2.3,2.48-2.16,10.15,56.8-8-71.82-12.45-56.8,8-56.8,8Z"/></g></g></g></svg>