<svg xmlns="http://www.w3.org/2000/svg" viewBox="0 0 232.62 232.62"><defs><style>.cls-1{fill:#d4ffff;}.cls-2{fill:#fb0;}.cls-3{fill:#aa5dfc;}.cls-4{fill:none;stroke:#8803d2;stroke-miterlimit:10;stroke-width:10.8px;}.cls-5{fill:#8fcb4e;}</style></defs><title>资源 1mdpi</title><g id="图层_2" data-name="图层 2"><g id="图层_1-2" data-name="图层 1"><rect class="cls-1" width="232.62" height="232.62"/><g id="图层_2_复制" data-name="图层 2_复制"><path class="cls-2" d="M68.43,116.67c-3.78,1.15-7.56,2.34-11.27,3.67s-7.34,2.78-10.9,4.4a104.1,104.1,0,0,0-10.34,5.36l-2.44,1.51c-.8.54-1.59,1-2.38,1.62a47,47,0,0,0-4.43,3.53,41.09,41.09,0,0,0-3.89,3.92,25.58,25.58,0,0,0-3,4.36A16.92,16.92,0,0,0,18,149.68a13,13,0,0,0-.15,4.72,15.87,15.87,0,0,0,1.44,4.5A20.65,20.65,0,0,0,22.06,163a39.15,39.15,0,0,0,8.1,7,75.72,75.72,0,0,0,9.8,5.36,103.65,103.65,0,0,0,10.58,4.14,172.85,172.85,0,0,0,22.25,5.73c7.56,1.4,15.23,2.44,22.93,3.09s15.44,1,23.18.94,15.48-.36,23.15-1.12a222.2,222.2,0,0,0,22.9-3.27,158.76,158.76,0,0,0,22.14-6,102.7,102.7,0,0,0,10.47-4.32,62.81,62.81,0,0,0,9.58-5.58,33.92,33.92,0,0,0,7.63-7.2,15.62,15.62,0,0,0,3.31-8.82,14,14,0,0,0-.68-4.68,20,20,0,0,0-2.2-4.57,35.08,35.08,0,0,0-7.41-8,53,53,0,0,0-4.57-3.39c-.8-.5-1.59-1-2.42-1.55l-1.22-.75-1.26-.72a96.6,96.6,0,0,0-10.44-5.19c-3.6-1.54-7.24-3-11-4.24-1.87-.65-3.74-1.26-5.62-1.88s-3.78-1.15-5.68-1.69a142,142,0,0,1,23.32,5,101.68,101.68,0,0,1,11.31,4.24A68.32,68.32,0,0,1,211,131.5a43.65,43.65,0,0,1,4.93,3.89,34.87,34.87,0,0,1,4.39,4.75,25.79,25.79,0,0,1,3.35,5.87,21.36,21.36,0,0,1,1.51,6.91,19.71,19.71,0,0,1-.18,3.6,14.2,14.2,0,0,1-.32,1.77l-.22.86a7.11,7.11,0,0,1-.25.87,21.41,21.41,0,0,1-1.3,3.27,26.26,26.26,0,0,1-1.69,3A33.93,33.93,0,0,1,217,171.5a47.19,47.19,0,0,1-4.82,4.36,87.06,87.06,0,0,1-21.82,12.06A159.44,159.44,0,0,1,167,195c-4,.9-8,1.62-12,2.27s-8,1.18-12,1.58c-8,.83-16.09,1.22-24.19,1.3s-16.13-.36-24.2-1.12c-4-.4-8-.9-12-1.51s-8-1.3-12-2.16a157.6,157.6,0,0,1-23.44-6.81A91.9,91.9,0,0,1,25.2,177a44.25,44.25,0,0,1-9.33-9,30.59,30.59,0,0,1-3.45-5.91,20.48,20.48,0,0,1-1.12-3.34c-.07-.29-.14-.58-.18-.87s-.11-.57-.18-.86c-.07-.58-.18-1.19-.22-1.8a20.24,20.24,0,0,1,.76-7.06A22.38,22.38,0,0,1,14.36,142a33.61,33.61,0,0,1,4.14-5.08,40.61,40.61,0,0,1,4.79-4.14A77.91,77.91,0,0,1,45.1,122,132.6,132.6,0,0,1,68.43,116.67Z"/><path id="svg_1" data-name="svg 1" class="cls-3" d="M116.53,142.92v-7.64a22.61,22.61,0,1,0,0-45.21V82.44a30,30,0,0,1,30.24,30.24,30.43,30.43,0,0,1-30.24,30.24Z"/><circle class="cls-4" cx="117.5" cy="112.64" r="42.55"/><path class="cls-5" d="M70,91.94c0-3,8.71-5.22-48.21-28.58C67.06,113.94,70,91.94,70,91.94Z"/><path class="cls-5" d="M72.5,86c2-2.41,10.62.07-19.66-47.16C55.08,102.42,72.5,86,72.5,86Z"/><path class="cls-5" d="M65.37,94.35c-2.84-1.69,0-9.07-55.11,17.25C84.78,109,65.37,94.35,65.37,94.35Z"/><path class="cls-5" d="M166.71,92.19c2.52.33,3.64,7,29.38-32.07-48,27.36-29.38,32.07-29.38,32.07Z"/><path class="cls-5" d="M168.51,100.26c2.31,2.48-2.16,10.15,56.81-8-71.82-12.45-56.81,8-56.81,8Z"/></g></g></g></svg>