<svg width="600" height="600" xmlns="http://www.w3.org/2000/svg" xmlns:svg="http://www.w3.org/2000/svg" class="icon">
 <g>
  <title>Layer 1</title>
  <path stroke="null" d="m302.653249,295.214474l0,-19.686611c-31.990743,0 -58.239879,-26.249136 -58.239879,-58.239879s26.249136,-58.238918 58.239879,-58.238918l0,-19.686611c-43.47492,0 -77.92649,34.45157 -77.92649,77.925529c0,42.654965 35.272486,77.92649 77.92649,77.92649z" fill="#aa5dfc" id="svg_1"/>
  <path d="m488.856101,481.417327c67.262268,-27.890007 109.096317,-70.544011 109.096317,-118.119668c0,-46.755702 -40.193178,-89.410667 -110.737189,-118.119668c-6.562524,-2.460826 -13.124087,0.819955 -15.584914,6.561563c-2.460826,6.562524 0.819955,13.125048 6.561563,15.585875c60.700705,24.608264 95.152275,59.879789 95.152275,95.97223c0,38.552306 -39.373223,73.824792 -99.253012,96.792185l-96.793147,-145.188759c28.709962,-22.967393 47.576618,-58.239879 47.576618,-97.613102c0,-68.90314 -55.779053,-125.502147 -125.502147,-125.502147c-68.90314,0 -125.502147,55.779053 -125.502147,125.502147c0,40.194139 19.686611,76.285619 49.216528,99.253973l-95.97223,144.367842c-60.700705,-23.787348 -100.893883,-59.059834 -100.893883,-97.61214c0,-36.092441 33.630654,-70.544011 93.511404,-95.152275c6.561563,-2.460826 9.022389,-9.843306 6.561563,-15.584914c-2.460826,-6.562524 -9.843306,-9.023351 -15.584914,-6.562524c-68.90314,28.709962 -108.276362,71.363966 -108.276362,117.299713c0,48.395612 42.654004,91.050577 110.737189,118.939623l31.170788,11.484177c41.013133,12.304132 87.768835,19.686611 139.446189,21.326521l31.990743,-0.819955c51.677355,-1.640871 100.073928,-9.023351 141.088022,-22.147438l31.990743,-10.663261zm-282.995038,-264.129343c0,-51.677355 41.834049,-94.331359 94.331359,-94.331359c51.677355,0 94.331359,41.834049 94.331359,94.331359s-41.834049,94.33232 -94.331359,94.33232c-51.677355,0 -94.331359,-42.654965 -94.331359,-94.33232zm-46.755702,253.465121l92.690487,-138.626234c9.843306,4.101698 21.327483,6.562524 32.81166,8.202434l0,148.470501c-45.935747,0 -88.589751,-7.382479 -125.502147,-18.046701zm157.492891,18.866656l0,-148.46954c12.304132,-1.640871 23.787348,-4.101698 34.45157,-9.023351l92.690487,138.626234c-38.552306,10.664222 -81.207272,17.225785 -127.142057,18.866656z" fill="#8803d2" id="svg_2"/>
 </g>
</svg>