<svg width="239.31" height="469.31" xmlns="http://www.w3.org/2000/svg">

 <g>
  <title>background</title>
  <rect fill="none" id="canvas_background" height="471.31" width="241.31" y="-1" x="-1"/>
 </g>
 <g>
  <title>Layer 1</title>
  <g id="svg_1">
   <g id="svg_2">
    <path id="svg_3" d="m203.205999,0l-167.685,0c-19.586,0 -35.521,15.932 -35.521,35.518l0,398.271c0,19.586 15.935,35.521 35.521,35.521l167.695,0c19.58,0 35.515,-15.936 35.515,-35.521l0,-398.271c-0.005,-19.586 -15.939,-35.518 -35.525,-35.518zm-167.685,11.85l167.695,0c12.029,0 21.886,9.062 23.363,20.705l-214.427,0c1.47,-11.644 11.329,-20.705 23.369,-20.705zm191.354,421.938c0,13.051 -10.618,23.669 -23.669,23.669l-167.685,0c-13.051,0 -23.668,-10.618 -23.668,-23.669l0,-3.198l215.032,0l0,3.198l-0.01,0zm0,-9.125l-215.022,0l0,-386.182l215.032,0l0,386.182l-0.01,0z"/>
    <circle id="svg_4" r="5.545" cy="23.194" cx="45.379999"/>
    <path id="svg_5" d="m141.868999,17.638l-44.696,0c-2.727,0 -4.133,2.064 -3.153,4.598l0.143,0.358c0.987,2.534 3.991,4.595 6.715,4.595l38.529,0c2.728,0 5.479,-2.14 6.17,-4.778c0.669,-2.63 -0.981,-4.773 -3.708,-4.773z"/>
   </g>
  </g>
  <g id="svg_6"/>
  <g id="svg_7"/>
  <g id="svg_8"/>
  <g id="svg_9"/>
  <g id="svg_10"/>
  <g id="svg_11"/>
  <g id="svg_12"/>
  <g id="svg_13"/>
  <g id="svg_14"/>
  <g id="svg_15"/>
  <g id="svg_16"/>
  <g id="svg_17"/>
  <g id="svg_18"/>
  <g id="svg_19"/>
  <g id="svg_20"/>
 </g>
</svg>