<svg width="706" height="1280" xmlns="http://www.w3.org/2000/svg" preserveAspectRatio="xMidYMid meet">

 <g>
  <title>background</title>
  <rect fill="none" id="canvas_background" height="940.636332" width="480.628328" y="-1" x="-1"/>
 </g>
 <g>
  <title>Layer 1</title>
  <g id="svg_1" fill="#000000" transform="translate(0,1280) scale(0.10000000149011612,-0.10000000149011612) ">
   <path id="svg_2" d="m845,12788c-103,-26 -184,-52 -230,-75c-269,-137 -464,-423 -520,-763c-12,-79 -15,-210 -15,-759l0,-664l-40,-34l-40,-35l0,-217l0,-218l40,-39l40,-39l0,-203l0,-203l-40,-38l-40,-38l0,-350l0,-350l40,-37l40,-37l0,-134l0,-134l-40,-37l-40,-37l0,-350l0,-350l40,-38l40,-38l0,-3313c0,-3642 -4,-3399 60,-3590c60,-179 142,-310 270,-431c124,-117 227,-174 386,-214c64,-16 247,-18 2696,-20l2628,-3l107,25c59,14 139,41 177,59c289,139 496,465 536,841c6,55 10,1576 10,3932l0,3843l28,6c15,4 39,18 55,32l27,26l0,347l0,347l-25,31c-15,16 -38,31 -53,33l-27,3l-5,1195l-6,1195l-26,105c-28,115 -51,177 -99,272c-108,214 -292,386 -486,453c-168,59 19,55 -2833,54c-1676,-1 -2629,-5 -2655,-11zm2724,-262c32,-17 51,-54 51,-100c0,-70 -77,-120 -142,-93c-63,27 -89,82 -64,141c26,62 92,84 155,52zm-1364,-402c45,-21 68,-59 68,-110c0,-148 -211,-164 -239,-18c-9,47 21,104 66,126c43,22 63,22 105,2zm2054,-85c16,-29 10,-69 -15,-93c-14,-14 -92,-16 -712,-16c-383,0 -702,4 -708,8c-16,10 -34,48 -34,69c0,10 7,29 16,41l15,22l712,-2l711,-3l15,-26zm2541,-5639l0,-4970l-3284,0c-2985,0 -3284,1 -3290,16c-8,22 -8,9909 1,9917c3,4 1484,7 3290,7l3283,0l0,-4970zm-3150,-5207c127,-34 249,-132 312,-249c100,-185 71,-419 -72,-577c-214,-239 -602,-219 -786,39c-65,91 -96,187 -97,294c-1,345 311,584 643,493z"/>
  </g>
  <rect stroke="#000" id="svg_3" height="997.463965" width="657.462602" y="141.240351" x="22.760721" stroke-width="1.5" fill="#fff"/>
 </g>
</svg>