<?xml version="1.0" standalone="no"?><!DOCTYPE svg PUBLIC "-//W3C//DTD SVG 1.1//EN" "http://www.w3.org/Graphics/SVG/1.1/DTD/svg11.dtd"><svg t="1630725815619" class="icon" viewBox="0 0 1024 1024" version="1.1" xmlns="http://www.w3.org/2000/svg" p-id="5027" xmlns:xlink="http://www.w3.org/1999/xlink" width="200" height="200"><defs><style type="text/css"></style></defs><path d="M280.392735 768.347418c-44.719432 0-81.102833-35.854527-81.102833-79.926111s36.382402-79.926111 81.102833-79.926112 81.102833 35.854527 81.102833 79.926112-36.382402 79.926111-81.102833 79.926111z m0-113.863091c-19.361424 0-35.113702 15.224402-35.113701 33.93698s15.751278 33.93698 35.113701 33.936979 35.113702-15.224402 35.113702-33.936979-15.751278-33.93698-35.113702-33.93698zM753.376956 768.347418c-44.719432 0-81.102833-35.854527-81.102833-79.926111s36.383402-79.926111 81.102833-79.926112 81.101833 35.854527 81.101833 79.926112-36.382402 79.926111-81.101833 79.926111z m0-113.863091c-19.361424 0-35.113702 15.224402-35.113702 33.93698s15.752277 33.93698 35.113702 33.936979 35.112702-15.224402 35.112702-33.936979-15.751278-33.93698-35.112702-33.93698z" fill="" p-id="5028"></path><path d="M778.390045 837.05818H251.411584c-78.970337 0-143.217154-63.155075-143.217153-140.783729v-475.087724c0-56.452659 28.065367-133.654414 161.76677-180.852259C368.495914 5.551688 475.066728 3.790104 495.429916 3.790104c2.24247 0 4.385963 0.014996 6.439478 0.04499 1.14273-0.024994 4.10303-0.077982 8.574974-0.077982 28.64723 0 129.356429 2.266464 222.510414 31.425573 54.317163 17.002982 97.66292 40.466437 128.831554 69.737519 39.693619 37.27819 59.820863 83.661228 59.820862 137.86142v453.492827c0 77.628654-64.246817 140.783729-143.217153 140.783729zM495.429916 49.779236c-52.618565 0-139.231096 8.8839-210.160333 33.922983-86.982444 30.705743-131.086021 76.961812-131.086021 137.485508v475.086724c0 52.269647 43.616692 94.794597 97.228022 94.794597h526.978461c53.61133 0 97.228022-42.52495 97.228022-94.794597v-453.492827c0-76.144005-52.621564-131.222988-156.402038-163.710311-86.927457-27.210569-181.773042-29.326069-208.771661-29.326069-5.019814 0-7.832149 0.072983-7.860143 0.072983l-0.479886 0.012996-0.489885-0.006998a405.704121 405.704121 0 0 0-6.184538-0.044989z" fill="" p-id="5029"></path><path d="M782.282125 477.799083H247.519504c-28.763202 0-52.163672-23.52544-52.163672-52.442607v-151.164275c0-28.916166 23.40047-52.442606 52.163672-52.442607h534.762621c28.763202 0 52.163672 23.52544 52.163672 52.442607v151.164275c-0.001 28.916166-23.40147 52.442606-52.163672 52.442607zM247.519504 267.739726c-3.404195 0-6.174541 2.895316-6.174541 6.453474v151.164276c0 3.558159 2.770345 6.453475 6.174541 6.453475h534.762621c3.404195 0 6.174541-2.895316 6.174541-6.453475v-151.164276c0-3.558159-2.770345-6.453475-6.174541-6.453474H247.519504zM262.995847 1024h-0.08698l-127.085966-0.478887a22.994566 22.994566 0 0 1-18.982514-35.844529l124.444591-184.661359a22.993566 22.993566 0 0 1 19.068493-10.143603h511.921019a22.996565 22.996565 0 0 1 19.206461 10.351554l121.617258 184.737341a22.993566 22.993566 0 0 1-19.206461 35.638578H768.504381a22.992566 22.992566 0 0 1-20.198227-12.004163L717.225499 954.474431H313.509909l-30.17287 57.253469a22.994566 22.994566 0 0 1-20.341192 12.2721z m-83.971156-46.306057l70.124428 0.264938 30.144876-57.200482a22.994566 22.994566 0 0 1 20.342193-12.274099h431.256082a22.994566 22.994566 0 0 1 20.198226 12.004163l31.080655 57.120501h69.052681l-91.341414-138.74821H272.58658l-93.561889 138.833189z" fill="" p-id="5030"></path><path d="M709.425343 905.365037h-0.059986l-388.733131-0.999764a22.994566 22.994566 0 0 1-20.176232-33.916984l30.372822-56.268703c6.032574-11.176359 19.982278-15.347373 31.157636-9.311799 11.175359 6.031575 15.344374 19.981278 9.3118 31.156637l-12.119136 22.450694 316.053308 0.812808L664.863874 833.752961c-4.777871-11.767219 0.88679-25.179049 12.65301-29.955921 11.76322-4.78087 25.17805 0.885791 29.95692 12.65301l23.254504 57.268466a22.991566 22.991566 0 0 1-2.246469 21.516915 22.990567 22.990567 0 0 1-19.056496 10.129606zM665.275777 213.712494H350.684123c-29.218095 0-52.987478-23.770382-52.987477-52.987478v-13.996692c0-29.217095 23.769383-52.987478 52.987477-52.987478h314.591654c29.218095 0 52.987478 23.770382 52.987477 52.987478v13.996692c0 29.217095-23.770382 52.987478-52.987477 52.987478z m-314.591654-73.982516c-3.859088 0-6.998346 3.139258-6.998346 6.998346v13.996692c0 3.859088 3.139258 6.998346 6.998346 6.998346h314.591654c3.858088 0 6.998346-3.139258 6.998346-6.998346v-13.996692c0-3.859088-3.140258-6.998346-6.998346-6.998346H350.684123z" fill="" p-id="5031"></path></svg>