<svg xmlns="http://www.w3.org/2000/svg" id="Layer_1" viewBox="0 0 85 82.2" width="17" height="17">
  <style>
    .st0,.st1,.st2{
      fill-opacity: 0;
      fill:#f44336
    }
    
    @keyframes pulse {
      from { fill-opacity: 0; }
      15% { fill-opacity: 0; }
      50% { fill-opacity: 1; }
      85% { fill-opacity: 0; }
      to { fill-opacity: 0; }
    }
    
    svg path.st1 {
      animation-name: pulse;
      animation-duration: 2s;
      animation-iteration-count: infinite;
    }
    
    svg path.st0 {
      animation-name: pulse;
      animation-delay: 0.3s;
      animation-duration: 2s;
      animation-iteration-count: infinite;
    }
    
    svg path.st2 {
      animation-name: pulse;
      animation-delay: 0.6s;
      animation-duration: 2s;
      animation-iteration-count: infinite;
    }
  </style>
  <path d="M21.9 15.4l-.3.3 1.4 1.9.3-.3c5.4-4 11.7-6.3 18.4-6.6 7.3-.1 14.3 2 20.1 6.4l.3.3 1.4-1.9-.3-.1c-6.3-4.7-13.7-7.1-21.7-7-7.1.3-13.9 2.7-19.6 7zM10.6 43.6c0-1.4 0-3 .3-4.8v-.3l-2.3-.3v.3c-.3 2-.4 3.6-.3 5.1.5 13.4 8.6 25.4 21 30.6l.3.1.9-2.1-.3-.1C18.6 67.2 10.9 56 10.6 43.6zM76.8 41.7c0-1-.1-2.1-.3-3.3v-.3l-2.3.3v.3c.1 1.1.3 2.1.3 3.1.4 13.3-7.3 25.2-19.5 30.3l-.3.1.9 2.1.3-.1c13.2-5.5 21.3-18.4 20.9-32.5z" class="st0"/>
  <path d="M58 22.9l1.4-1.9-.3-.3c-5-3.8-11-5.7-17.2-5.6-5.7.1-11.1 2.1-15.8 5.6l-.3.3 1.4 1.9.3-.3c4.3-3.1 9.3-5 14.4-5.1 5.7-.1 11.3 1.6 15.8 5.1l.3.3zM17.5 43.4c0-1.1 0-2.4.1-3.8v-.3l-2.2-.3v.3c-.1 1.6-.3 2.9-.3 4.1.3 10.7 6.8 20.2 16.8 24.5l.3.1.8-2-.3-.1C23.8 62 17.8 53.1 17.5 43.4zM70.1 41.9c0-.9-.1-1.7-.1-2.6V39l-2.3.3v.3c.1.9.1 1.7.1 2.4.3 10.4-5.7 19.7-15.4 23.8l-.3.2.9 2.1.3-.1c10.5-4.5 17.1-14.7 16.8-26.1z" class="st1"/>
  <g>
    <path d="M18.8 11.2c6.7-5 14.5-7.7 22.7-8 9-.3 17.7 2.6 24.8 8l.3.3L68 9.6l-.3-.3C60 3.5 51 .7 41.4 1c-8.7.3-17 3.1-23.9 8.4l-.3.3 1.4 1.9c0-.1.2-.4.2-.4zM3.2 43.7c0-2 0-4 .3-6v-.3l-2.3-.3v.3C1 39.6.8 41.7 1 43.9c.4 16.2 10.4 30.9 25.5 37.2l.3.1.9-2.1-.3-.1C13.1 72.9 3.7 59.1 3.2 43.7zM83.9 37.5v-.3l-2.3.3v.3c.1 1.3.3 2.6.3 3.8.4 16.1-9.3 31.1-24.1 37.3l-.3.1.9 2.1.3-.1C74.3 74.4 84.6 58.5 84 41.6c.2-1.4 0-2.7-.1-4.1z" class="st2"/>
  </g>
  <circle cx="42.5" cy="42.1" r="19.7" fill="#f44336"/>
</svg>