<?xml version="1.0" encoding="utf-8"?>
<!-- Generator: Adobe Illustrator 18.0.0, SVG Export Plug-In . SVG Version: 6.00 Build 0)  -->
<!DOCTYPE svg PUBLIC "-//W3C//DTD SVG 1.1//EN" "http://www.w3.org/Graphics/SVG/1.1/DTD/svg11.dtd">
<svg version="1.1" id="Twoo" xmlns="http://www.w3.org/2000/svg" xmlns:xlink="http://www.w3.org/1999/xlink" x="0px" y="0px"
	 viewBox="0 0 120 120" enable-background="new 0 0 120 120" xml:space="preserve">
<g>
	<g>
		<path fill="#FFFFFF" d="M60.5,23L60.5,23C50.3,23,42,31,42,41.1V62h37V41.1C79,31,70.5,23,60.5,23z M70,62H50V41.5
			c0-5.4,4.6-9.5,10-9.5h0.1c5.4,0,9.9,4.1,9.9,9.5V62z"/>
		<path fill="#1C1F26" d="M79,64H42c-1.1,0-2-0.9-2-2V41.1C40,30,49.2,21,60.5,21S81,30,81,41.1V62C81,63.1,80.1,64,79,64z M72,60h5
			V41.1C77,32.2,69.6,25,60.5,25C51.4,25,44,32.2,44,41.1V60h4V41.5C48,35.2,53.4,30,60,30h0.1C66.8,30,72,35.1,72,41.5V60z M52,60
			h16V41.5c0-4.2-3.5-7.5-7.9-7.5H60c-4.4,0-8,3.4-8,7.5V60z"/>
	</g>
	<g>
		<path fill="#FFFFFF" d="M87.2,91.6c0,3.3-2.7,6-6,6h-42c-3.3,0-6-2.7-6-6V60.2c0-3.3,2.7-6,6-6h42c3.3,0,6,2.7,6,6V91.6z"/>
		<path fill="#1C1F26" d="M81.2,99.6h-42c-4.4,0-8-3.6-8-8V60.2c0-4.4,3.6-8,8-8h42c4.4,0,8,3.6,8,8v31.4
			C89.2,96,85.6,99.6,81.2,99.6z M39.2,56.2c-2.2,0-4,1.8-4,4v31.4c0,2.2,1.8,4,4,4h42c2.2,0,4-1.8,4-4V60.2c0-2.2-1.8-4-4-4H39.2z"
			/>
	</g>
	<g>
		<path fill="#55CEBA" d="M80.6,87.8c0,1.3-1.1,2.4-2.4,2.4H42.3c-1.3,0-2.4-1.1-2.4-2.4V64c0-1.3,1.1-2.4,2.4-2.4h35.9
			c1.3,0,2.4,1.1,2.4,2.4V87.8z"/>
	</g>
	<g>
		<path fill="#FFFFFF" d="M49,74H38c-1.1,0-2-0.9-2-2s0.9-2,2-2h11c1.1,0,2,0.9,2,2S50.1,74,49,74z"/>
	</g>
	<g>
		<path fill="#FFFFFF" d="M46,82h-8c-1.1,0-2-0.9-2-2s0.9-2,2-2h8c1.1,0,2,0.9,2,2S47.1,82,46,82z"/>
	</g>
	<g>
		<path fill="#FFFFFF" d="M60.5,84.8L60.5,84.8c-2.4,0-4.4-2-4.4-4.4v-8.5c0-2.4,2-4.4,4.4-4.4l0,0c2.4,0,4.4,2,4.4,4.4v8.5
			C64.9,82.8,62.9,84.8,60.5,84.8z"/>
		<path fill="#1C1F26" d="M60.5,86.8c-3.5,0-6.4-2.9-6.4-6.4v-8.5c0-3.5,2.9-6.4,6.4-6.4c3.5,0,6.4,2.9,6.4,6.4v8.5
			C66.9,83.9,64,86.8,60.5,86.8z M60.5,69.5c-1.3,0-2.4,1.1-2.4,2.4v8.5c0,1.3,1.1,2.4,2.4,2.4s2.4-1.1,2.4-2.4v-8.5
			C62.9,70.6,61.8,69.5,60.5,69.5z"/>
	</g>
</g>
</svg>
